<svg width="92" height="44" viewBox="0 0 92 44" fill="none" xmlns="http://www.w3.org/2000/svg">
    <rect x="73.2051" y="19.0981" width="1.28788" height="12.8788" rx="0.643942" transform="rotate(45 73.2051 19.0981)" fill="#DA6317"/>
    <rect x="74.1157" y="28.2047" width="1.28788" height="12.8788" rx="0.643942" transform="rotate(135 74.1157 28.2047)" fill="#DA6317"/>
    <rect opacity="0.1" width="92" height="44" rx="15" fill="#FEAD1D"/>
    <path d="M24.116 27.168C26.228 27.168 27.464 26.028 27.464 24.576C27.464 22.908 26.12 22.356 24.44 21.864C22.988 21.432 22.352 21.156 22.352 20.328C22.352 19.68 22.916 19.32 23.9 19.32C24.86 19.32 25.616 19.728 26.144 20.616L27.236 19.86C26.696 18.816 25.664 17.952 23.912 17.952C22.112 17.952 20.876 18.948 20.876 20.46C20.876 22.152 22.256 22.62 23.972 23.124C25.436 23.556 25.988 23.916 25.988 24.684C25.988 25.488 25.256 25.836 24.176 25.836C23.072 25.836 22.256 25.332 21.728 24.288L20.54 24.912C21.104 26.256 22.352 27.168 24.116 27.168ZM31.9733 27.132C33.5213 27.132 35.0813 26.148 35.0813 23.82C35.0813 21.468 33.5213 20.508 31.9733 20.508C30.4133 20.508 28.8653 21.468 28.8653 23.82C28.8653 26.148 30.4253 27.132 31.9733 27.132ZM31.9733 25.896C30.8453 25.896 30.3533 25.032 30.3533 23.82C30.3533 22.536 30.9053 21.768 31.9733 21.768C33.0893 21.768 33.5933 22.632 33.5933 23.82C33.5933 25.128 33.0413 25.896 31.9733 25.896ZM38.5663 27.12C39.7183 27.12 40.4863 26.568 40.8943 26.136V27H42.3823V20.628H40.8943V25.056C40.3543 25.548 39.8143 25.884 39.1663 25.884C38.5183 25.884 38.2183 25.56 38.2183 24.852V20.628H36.7303V25.2C36.7303 26.46 37.4503 27.12 38.5663 27.12ZM44.4614 29.4H45.9374V26.292C46.4054 26.82 47.0774 27.096 47.7614 27.096C49.3934 27.096 50.4854 26.016 50.4854 23.808C50.4854 21.6 49.4174 20.508 47.9654 20.508C47.0174 20.508 46.3574 20.964 45.9374 21.468V20.628H44.4614V29.4ZM47.4374 25.92C46.9094 25.92 46.3334 25.644 45.9374 25.128V22.572C46.2854 22.152 46.8734 21.768 47.4854 21.768C48.4334 21.768 49.0094 22.476 49.0094 23.82C49.0094 25.236 48.5534 25.92 47.4374 25.92Z" fill="#DA6317"/>
</svg>
