<svg width="54" height="54" viewBox="0 0 54 54" fill="none" xmlns="http://www.w3.org/2000/svg">
    <path d="M27 21.7266C24.0922 21.7266 21.7266 24.0922 21.7266 27C21.7266 29.9078 24.0922 32.2734 27 32.2734C29.9078 32.2734 32.2734 29.9078 32.2734 27C32.2734 24.0922 29.9078 21.7266 27 21.7266Z" fill="#767DFF"/>
    <path d="M49.8346 13.8164C47.4672 9.71557 40.997 9.98135 36.3427 10.9323C34.8833 6.30292 31.855 0 27 0C22.1457 0 19.1173 6.30113 17.6573 10.9323C12.9932 9.97935 6.53105 9.71884 4.16538 13.8164C1.78559 17.9383 5.29833 23.4431 8.46418 27C5.29949 30.5556 1.78527 36.061 4.16538 40.1836C6.52799 44.2758 12.9906 44.0212 17.6573 43.0677C19.1167 47.6971 22.145 54 27 54C31.8543 54 34.8827 47.6989 36.3427 43.0677C40.9812 44.0154 47.462 44.2933 49.8346 40.1836C52.2144 36.0617 48.7017 30.5569 45.5358 27C48.7005 23.4444 52.2147 17.939 49.8346 13.8164ZM27 2.10938C30.6044 2.10938 33.1747 7.94074 34.2797 11.4158C31.9319 12.0343 29.4788 12.9057 27 14.001C24.5212 12.9057 22.068 12.0343 19.7203 11.4158C20.821 7.95435 23.3911 2.10938 27 2.10938ZM36.4922 27C36.4922 28.7989 36.4094 30.5917 36.2506 32.3451C33.3759 34.3711 30.1966 36.207 27 37.6855C23.8079 36.2091 20.6282 34.3738 17.7494 32.3451C17.5906 30.5917 17.5078 28.7989 17.5078 27C17.5078 25.2011 17.5906 23.4083 17.7494 21.6549C20.6242 19.6289 23.8035 17.793 27 16.3145C30.1921 17.7909 33.3718 19.626 36.2506 21.6549C36.4094 23.4083 36.4922 25.2011 36.4922 27ZM38.4945 23.3245C40.0125 24.5175 41.4044 25.7502 42.6427 27C41.4044 28.2498 40.0125 29.4825 38.4945 30.6755C38.5651 29.4651 38.6016 28.2379 38.6016 27C38.6016 25.7621 38.5651 24.5349 38.4945 23.3245ZM35.9315 35.1141C35.6643 37.0174 35.3053 38.8479 34.8623 40.5579C33.1476 40.1089 31.3694 39.5158 29.5623 38.7915C31.7494 37.696 33.887 36.462 35.9315 35.1141ZM24.4377 38.7915C22.6306 39.5158 20.8524 40.1089 19.1377 40.5579C18.6948 38.8479 18.3357 37.0175 18.0685 35.1141C20.1108 36.4607 22.2482 37.6948 24.4377 38.7915ZM15.5055 30.6755C13.9876 29.4825 12.5956 28.2498 11.3573 27C12.5956 25.7502 13.9875 24.5175 15.5055 23.3245C15.4349 24.5349 15.3984 25.7621 15.3984 27C15.3984 28.2379 15.4349 29.4651 15.5055 30.6755ZM18.0685 18.8859C18.3357 16.9826 18.6947 15.1521 19.1377 13.4421C20.8524 13.8911 22.6306 14.4842 24.4377 15.2085C22.2506 16.304 20.113 17.538 18.0685 18.8859ZM29.5622 15.2085C31.3693 14.4842 33.1475 13.8911 34.8622 13.4421C35.3051 15.1521 35.6642 16.9825 35.9314 18.8859C33.8892 17.5395 31.7518 16.3052 29.5622 15.2085ZM5.9921 14.8711C7.75702 11.8142 13.5767 12.2703 17.0745 12.9655C16.4659 15.3111 16.0152 17.8509 15.7353 20.5058C13.5727 22.0868 11.612 23.7557 9.91649 25.4593C7.56316 22.7831 4.21696 17.9459 5.9921 14.8711ZM5.9921 39.1289C4.21907 36.0577 7.55483 31.2262 9.91638 28.5407C11.6119 30.2443 13.5726 31.9132 15.7352 33.4942C16.0151 36.1491 16.4658 38.6889 17.0744 41.0345C13.5857 41.7279 7.76007 42.1912 5.9921 39.1289ZM27 51.8906C23.3956 51.8906 20.8253 46.0593 19.7203 42.5842C22.068 41.9657 24.5212 41.0943 27 39.999C29.4788 41.0943 31.932 41.9657 34.2797 42.5842C33.179 46.0457 30.6089 51.8906 27 51.8906ZM48.0079 39.1289C46.2399 42.1915 40.4132 41.7277 36.9255 41.0345C37.5341 38.6889 37.9848 36.1491 38.2647 33.4942C40.4273 31.9132 42.388 30.2443 44.0835 28.5407C46.4368 31.2169 49.7831 36.0541 48.0079 39.1289ZM38.2647 20.5058C37.9848 17.8509 37.5341 15.3111 36.9255 12.9655C40.4391 12.2673 46.2475 11.8222 48.0079 14.8711C49.7809 17.9423 46.4452 22.7738 44.0836 25.4593C42.388 23.7557 40.4273 22.0868 38.2647 20.5058Z" fill="#767DFF"/>
</svg>
